Coordinates
version=1
nRows=16
nColumns=40
inDegrees=yes

Units are S.I. units (second, meters, Newtons, ...)
If the header above contains a line with 'inDegrees', this indicates whether rotational values are in degrees (yes) or radians (no).

endheader
time	pelvis_tilt	pelvis_list	pelvis_rotation	pelvis_tx	pelvis_ty	pelvis_tz	hip_flexion_r	hip_adduction_r	hip_rotation_r	knee_angle_r	knee_angle_r_beta	ankle_angle_r	subtalar_angle_r	mtp_angle_r	hip_flexion_l	hip_adduction_l	hip_rotation_l	knee_angle_l	knee_angle_l_beta	ankle_angle_l	subtalar_angle_l	mtp_angle_l	lumbar_extension	lumbar_bending	lumbar_rotation	arm_flex_r	arm_add_r	arm_rot_r	elbow_flex_r	pro_sup_r	wrist_flex_r	wrist_dev_r	arm_flex_l	arm_add_l	arm_rot_l	elbow_flex_l	pro_sup_l	wrist_flex_l	wrist_dev_l
      0.58000000	     -0.81668195	    -11.17240896	     84.64215600	      0.25243585	      0.92228844	      0.85125087	    -11.85822811	      1.71881829	      2.65305350	      3.38746076	      0.05912234	      5.75773945	      0.00000000	      0.00000000	     39.49596802	     -2.77799484	     -5.29032017	      1.27538627	      0.02225969	      7.37206524	     -0.00000000	      0.00000000	      2.56258243	     -2.45830703	      9.38334842	      0.00000000	      0.00000000	      0.00000000	      0.00000000	      0.00000000	     -0.00000000	      0.00000000	     -0.00000000	     -0.00000000	      0.00000000	      0.00000000	      0.00000000	      0.00000000	     -0.00000000
      0.59000000	     -1.00928086	    -11.18449667	     83.86640533	      0.25234689	      0.91765693	      0.82840305	    -12.83590526	      1.13517410	      2.83391238	      4.18553716	      0.07305140	      5.37192174	     -0.00000000	     -0.00000000	     39.90357196	     -3.04883470	     -5.22462243	      1.73093421	      0.03021050	      7.76507704	      0.00000000	     -0.00000000	      2.72792216	     -2.63397301	     10.18092620	     -0.00000000	      0.00000000	     -0.00000000	      0.00000000	      0.00000000	      0.00000000	     -0.00000000	      0.00000000	     -0.00000000	      0.00000000	      0.00000000	      0.00000000	      0.00000000	      0.00000000
      0.60000000	     -1.28597997	    -11.22191261	     83.14239440	      0.25209036	      0.91328246	      0.80531814	    -13.52572749	      0.43356563	      2.78281608	      5.40106683	      0.09426640	      4.70814999	      0.00000000	      0.00000000	     40.47544168	     -3.22205518	     -5.75125749	      3.22269911	      0.05624671	      7.95352734	      0.00000000	      0.00000000	      2.96204943	     -2.90185679	     10.92467837	      0.00000000	      0.00000000	      0.00000000	      0.00000000	      0.00000000	      0.00000000	      0.00000000	      0.00000000	      0.00000000	      0.00000000	      0.00000000	      0.00000000	      0.00000000	      0.00000000
      0.61000000	     -1.59632653	    -11.31606673	     82.55335022	      0.25158893	      0.90913954	      0.78199251	    -13.90340538	     -0.30672684	      2.54397364	      7.01843851	      0.12249486	      3.69911349	      0.00000000	      0.00000000	     41.18501914	     -3.29578333	     -6.49737932	      5.47466863	      0.09555099	      7.66533406	      0.00000000	      0.00000000	      3.29117363	     -3.20569510	     11.54167746	      0.00000000	      0.00000000	      0.00000000	      0.00000000	      0.00000000	      0.00000000	      0.00000000	      0.00000000	      0.00000000	      0.00000000	      0.00000000	      0.00000000	      0.00000000	      0.00000000
      0.62000000	     -1.92818571	    -11.43334684	     82.10567476	      0.25082168	      0.90539540	      0.75844938	    -13.98624644	     -1.06694827	      2.13166666	      9.04440282	      0.15785461	      2.32921409	      0.00000000	      0.00000000	     41.92249041	     -3.26683564	     -7.13561356	      8.17914145	      0.14275295	      6.72851960	      0.00000000	      0.00000000	      3.68037119	     -3.53730348	     12.03914500	      0.00000000	      0.00000000	      0.00000000	      0.00000000	      0.00000000	      0.00000000	      0.00000000	      0.00000000	      0.00000000	      0.00000000	      0.00000000	      0.00000000	      0.00000000	      0.00000000
      0.63000000	     -2.35249344	    -11.61100132	     81.76565917	      0.24983764	      0.90209721	      0.73475552	    -13.68725283	     -1.91074419	      1.66715543	     11.50660787	      0.20082819	      0.43749787	      0.00000000	      0.00000000	     42.71976902	     -3.09715618	     -7.68932500	     11.14193286	      0.19446341	      5.18663070	      0.00000000	      0.00000000	      4.18032946	     -3.97401381	     12.38221892	      0.00000000	      0.00000000	      0.00000000	      0.00000000	      0.00000000	      0.00000000	      0.00000000	      0.00000000	      0.00000000	      0.00000000	      0.00000000	      0.00000000	      0.00000000	      0.00000000
      0.64000000	     -2.81492080	    -11.54508981	     81.63035764	      0.24850143	      0.89975935	      0.71086767	    -13.38592132	     -2.81655397	      0.97197452	     14.29776609	      0.24954309	     -2.07247029	      0.00000000	      0.00000000	     43.19496255	     -2.70405821	     -7.90442528	     14.09797809	      0.24605614	      2.90837323	      0.00000000	      0.00000000	      4.39014326	     -4.50329661	     12.55967790	      0.00000000	      0.00000000	      0.00000000	      0.00000000	      0.00000000	      0.00000000	      0.00000000	      0.00000000	      0.00000000	      0.00000000	      0.00000000	      0.00000000	      0.00000000	      0.00000000
      0.65000000	     -3.35075319	    -11.61831622	     81.65559315	      0.24681395	      0.89792658	      0.68706345	    -12.54525848	     -3.76891757	      0.19132136	     17.62707589	      0.30765051	     -5.09820409	      0.00000000	      0.00000000	     43.78217681	     -2.11136125	     -7.77827256	     17.00579310	      0.29680708	      0.26525522	      0.00000000	      0.00000000	      4.77188494	     -5.10440116	     12.56950851	      0.00000000	      0.00000000	      0.00000000	      0.00000000	      0.00000000	      0.00000000	      0.00000000	      0.00000000	      0.00000000	      0.00000000	      0.00000000	      0.00000000	      0.00000000	      0.00000000
      0.66000000	     -3.94186520	    -11.49344417	     81.85257086	      0.24481399	      0.89710312	      0.66326793	    -11.61246925	     -4.79193225	     -0.62145324	     21.31250030	      0.37197330	     -8.66244586	     -0.00000000	     -0.00000000	     44.08572166	     -1.28451666	     -7.45764542	     19.82052651	      0.34593345	     -2.24456501	     -0.00000000	     -0.00000000	      4.89747840	     -5.80847711	     12.36501954	     -0.00000000	      0.00000000	     -0.00000000	      0.00000000	      0.00000000	     -0.00000000	     -0.00000000	      0.00000000	      0.00000000	     -0.00000000	      0.00000000	      0.00000000	     -0.00000000	      0.00000000
      0.67000000	     -4.54074791	    -11.22138951	     82.21129455	      0.24256684	      0.89718304	      0.63967069	    -10.50783012	     -5.82962625	     -1.44920833	     25.38410926	      0.44303628	    -12.49105786	      0.00000000	      0.00000000	     44.15651362	     -0.30804070	     -7.07809891	     22.57479261	      0.39400446	     -4.17633654	      0.00000000	      0.00000000	      4.80419642	     -6.55370847	     12.01603800	      0.00000000	      0.00000000	      0.00000000	      0.00000000	      0.00000000	      0.00000000	      0.00000000	      0.00000000	      0.00000000	      0.00000000	      0.00000000	      0.00000000	      0.00000000	      0.00000000
      0.68000000	     -5.18984762	    -10.98500594	     82.64640233	      0.24006272	      0.89795405	      0.61637785	     -9.03277937	     -6.87371777	     -1.99060774	     29.81043304	      0.52029021	    -16.36697043	      0.00000000	      0.00000000	     44.06548289	      0.83794863	     -6.59348960	     25.04731498	      0.43715812	     -5.29184532	      0.00000000	      0.00000000	      4.72981510	     -7.32067849	     11.51492785	      0.00000000	      0.00000000	      0.00000000	      0.00000000	      0.00000000	      0.00000000	      0.00000000	      0.00000000	      0.00000000	      0.00000000	      0.00000000	      0.00000000	      0.00000000	      0.00000000
      0.69000000	     -5.81566446	    -10.80819793	     83.11879025	      0.23753122	      0.89934123	      0.59362325	     -7.14467647	     -7.80940831	     -2.19574141	     34.55398142	      0.60308075	    -19.88020659	      0.00000000	      0.00000000	     43.79681875	      2.02545614	     -6.09288464	     27.17920551	      0.47436662	     -5.52249161	      0.00000000	      0.00000000	      4.66053848	     -8.05263828	     10.97876209	      0.00000000	      0.00000000	      0.00000000	      0.00000000	      0.00000000	      0.00000000	      0.00000000	      0.00000000	      0.00000000	      0.00000000	      0.00000000	      0.00000000	      0.00000000	      0.00000000
      0.70000000	     -6.41182345	    -10.39990524	     83.66953364	      0.23494702	      0.90169335	      0.57118297	     -5.31362032	     -8.68108762	     -2.30479285	     39.30755382	      0.68604624	    -22.75983342	     -0.00000000	     -0.00000000	     43.01476274	      3.24523054	     -5.83346705	     28.96360691	      0.50551030	     -4.99376259	     -0.00000000	     -0.00000000	      4.25666334	     -8.75893907	     10.24895236	      0.00000000	     -0.00000000	      0.00000000	      0.00000000	      0.00000000	      0.00000000	      0.00000000	     -0.00000000	      0.00000000	      0.00000000	      0.00000000	      0.00000000	      0.00000000	      0.00000000
      0.71000000	     -6.97976901	    -10.13876860	     84.15470483	      0.23244066	      0.90448579	      0.54937453	     -3.04112466	     -9.42205763	     -2.11825899	     44.12301686	      0.77009192	    -24.62030822	      0.00000000	      0.00000000	     42.05095600	      4.45528131	     -5.50049628	     30.19009157	      0.52691650	     -3.88447481	     -0.00000000	     -0.00000000	      3.99143389	     -9.37770669	      9.59816338	      0.00000000	      0.00000000	     -0.00000000	      0.00000000	      0.00000000	      0.00000000	     -0.00000000	     -0.00000000	      0.00000000	     -0.00000000	      0.00000000	      0.00000000	      0.00000000	      0.00000000
      0.72000000	     -7.44233238	     -9.91871188	     84.57392230	      0.23007628	      0.90779410	      0.52810880	     -0.52696130	     -9.98077453	     -1.77167562	     48.79854685	      0.85169531	    -25.24304272	      0.00000000	      0.00000000	     40.83142321	      5.54510024	     -5.18900547	     30.94309470	      0.54005888	     -2.50411117	      0.00000000	      0.00000000	      3.72292196	     -9.84380975	      8.98927583	      0.00000000	      0.00000000	      0.00000000	      0.00000000	      0.00000000	      0.00000000	      0.00000000	      0.00000000	      0.00000000	      0.00000000	      0.00000000	      0.00000000	      0.00000000	      0.00000000
      0.73000000	     -7.79154766	     -9.65855381	     84.94464858	      0.22786673	      0.91172425	      0.50722936	      2.04428074	    -10.36438473	     -1.39819483	     53.11511344	      0.92703361	    -24.72834524	      0.00000000	      0.00000000	     39.28012342	      6.53070851	     -4.84531316	     31.20821749	      0.54468615	     -1.03303239	      0.00000000	      0.00000000	      3.38384072	    -10.13947371	      8.29508041	      0.00000000	      0.00000000	      0.00000000	      0.00000000	      0.00000000	      0.00000000	      0.00000000	      0.00000000	      0.00000000	      0.00000000	      0.00000000	      0.00000000	      0.00000000	      0.00000000
